<svg width="148" height="34" viewBox="0 0 148 34" fill="none" xmlns="http://www.w3.org/2000/svg">
<path d="M20.2869 17.696C20.4949 17.696 20.6549 17.8 20.7669 18.008C20.8949 18.2 20.9589 18.448 20.9589 18.752C20.9589 19.12 20.9029 19.408 20.7909 19.616C20.6789 19.824 20.5029 20.008 20.2629 20.168C19.3189 20.792 17.8149 21.816 15.7509 23.24C15.1269 26.552 14.3189 29.16 13.3269 31.064C12.3349 32.968 11.0789 33.92 9.55891 33.92C8.74291 33.92 8.07891 33.664 7.56691 33.152C7.05491 32.656 6.79891 32 6.79891 31.184C6.79891 30.432 6.96691 29.672 7.30291 28.904C7.63891 28.136 8.26291 27.248 9.17491 26.24C10.1029 25.232 11.4069 24.08 13.0869 22.784L13.1589 22.328C11.8949 22.856 10.6549 23.12 9.43891 23.12C7.64691 23.12 6.07091 22.776 4.71091 22.088C3.35091 21.384 2.29491 20.392 1.54291 19.112C0.790906 17.832 0.414906 16.344 0.414906 14.648C0.414906 12.28 0.862906 10.192 1.75891 8.384C2.65491 6.56 3.88691 5.152 5.45491 4.16C7.03891 3.152 8.80691 2.648 10.7589 2.648C12.6309 2.648 14.0309 3.088 14.9589 3.968C15.9029 4.832 16.3749 5.984 16.3749 7.424C16.3749 8.368 16.1989 9.128 15.8469 9.704C15.5109 10.264 15.0229 10.544 14.3829 10.544C13.9509 10.544 13.5989 10.44 13.3269 10.232C13.0709 10.024 12.9429 9.736 12.9429 9.368C12.9429 9.208 12.9749 8.936 13.0389 8.552C13.1349 8.104 13.1829 7.752 13.1829 7.496C13.1829 6.824 12.9749 6.304 12.5589 5.936C12.1589 5.568 11.4789 5.384 10.5189 5.384C9.35091 5.384 8.26291 5.72 7.25491 6.392C6.26291 7.064 5.46291 8.072 4.85491 9.416C4.24691 10.744 3.94291 12.344 3.94291 14.216C3.94291 16.136 4.46291 17.624 5.50291 18.68C6.55891 19.72 8.07891 20.24 10.0629 20.24C11.1669 20.24 12.3189 19.992 13.5189 19.496L13.8549 16.568H11.4069C10.9589 16.568 10.6149 16.464 10.3749 16.256C10.1349 16.032 10.0149 15.672 10.0149 15.176C10.0149 14.728 10.1349 14.376 10.3749 14.12C10.6149 13.864 10.9349 13.736 11.3349 13.736H15.8229C16.1749 13.736 16.4629 13.856 16.6869 14.096C16.9269 14.32 17.0229 14.648 16.9749 15.08C16.9269 15.592 16.7669 16.752 16.4949 18.56L16.2309 20.384C17.5109 19.424 18.6789 18.592 19.7349 17.888C19.9429 17.76 20.1269 17.696 20.2869 17.696ZM9.82291 31.592C10.2389 31.592 10.6949 31.12 11.1909 30.176C11.6869 29.232 12.1509 27.712 12.5829 25.616C11.3669 26.656 10.4869 27.592 9.94291 28.424C9.41491 29.272 9.15091 30.016 9.15091 30.656C9.15091 31.28 9.37491 31.592 9.82291 31.592ZM20.9302 23.12C20.3222 23.12 19.8902 22.8 19.6342 22.16C19.3942 21.52 19.2742 20.496 19.2742 19.088C19.2742 17.008 19.5702 15.032 20.1622 13.16C20.3062 12.696 20.5382 12.36 20.8582 12.152C21.1942 11.928 21.6582 11.816 22.2502 11.816C22.5702 11.816 22.7942 11.856 22.9222 11.936C23.0502 12.016 23.1142 12.168 23.1142 12.392C23.1142 12.648 22.9942 13.224 22.7542 14.12C22.5942 14.76 22.4662 15.32 22.3702 15.8C22.2742 16.28 22.1942 16.872 22.1302 17.576C22.6582 16.2 23.2502 15.08 23.9062 14.216C24.5622 13.352 25.2022 12.736 25.8262 12.368C26.4662 12 27.0502 11.816 27.5782 11.816C28.6182 11.816 29.1382 12.336 29.1382 13.376C29.1382 13.584 29.0662 14.088 28.9222 14.888C28.7942 15.528 28.7302 15.928 28.7302 16.088C28.7302 16.648 28.9302 16.928 29.3302 16.928C29.7782 16.928 30.3542 16.576 31.0582 15.872C31.2662 15.664 31.4822 15.56 31.7062 15.56C31.9142 15.56 32.0742 15.656 32.1862 15.848C32.3142 16.024 32.3782 16.264 32.3782 16.568C32.3782 17.16 32.2182 17.624 31.8982 17.96C31.4502 18.424 30.9222 18.824 30.3142 19.16C29.7222 19.48 29.0902 19.64 28.4182 19.64C27.5702 19.64 26.9222 19.424 26.4742 18.992C26.0422 18.56 25.8262 17.976 25.8262 17.24C25.8262 17 25.8502 16.76 25.8982 16.52C25.9302 16.2 25.9462 15.984 25.9462 15.872C25.9462 15.616 25.8582 15.488 25.6822 15.488C25.4422 15.488 25.1222 15.76 24.7222 16.304C24.3382 16.832 23.9542 17.536 23.5702 18.416C23.1862 19.296 22.8742 20.224 22.6342 21.2C22.4582 21.952 22.2502 22.464 22.0102 22.736C21.7862 22.992 21.4262 23.12 20.9302 23.12ZM33.2921 10.232C32.6201 10.232 32.1161 10.08 31.7801 9.776C31.4441 9.456 31.2761 9.016 31.2761 8.456C31.2761 7.896 31.4921 7.432 31.9241 7.064C32.3721 6.68 32.9241 6.488 33.5801 6.488C34.1721 6.488 34.6521 6.632 35.0201 6.92C35.3881 7.208 35.5721 7.616 35.5721 8.144C35.5721 8.784 35.3641 9.296 34.9481 9.68C34.5321 10.048 33.9801 10.232 33.2921 10.232ZM33.1001 23.12C32.0601 23.12 31.3001 22.752 30.8201 22.016C30.3561 21.28 30.1241 20.304 30.1241 19.088C30.1241 18.368 30.2121 17.448 30.3881 16.328C30.5801 15.192 30.8201 14.136 31.1081 13.16C31.2521 12.648 31.4441 12.296 31.6841 12.104C31.9241 11.912 32.3081 11.816 32.8361 11.816C33.6521 11.816 34.0601 12.088 34.0601 12.632C34.0601 13.032 33.9081 13.96 33.6041 15.416C33.2201 17.176 33.0281 18.368 33.0281 18.992C33.0281 19.472 33.0921 19.84 33.2201 20.096C33.3481 20.352 33.5641 20.48 33.8681 20.48C34.1561 20.48 34.5161 20.28 34.9481 19.88C35.3801 19.48 35.9561 18.848 36.6761 17.984C36.8681 17.76 37.0841 17.648 37.3241 17.648C37.5321 17.648 37.6921 17.744 37.8041 17.936C37.9321 18.128 37.9961 18.392 37.9961 18.728C37.9961 19.368 37.8441 19.864 37.5401 20.216C35.9561 22.152 34.4761 23.12 33.1001 23.12ZM44.7903 17.648C44.9663 18.96 45.2223 20.256 45.5583 21.536C45.6223 21.744 45.6543 21.96 45.6543 22.184C45.6543 22.904 45.2143 23.264 44.3343 23.264C43.8383 23.264 43.4543 23.128 43.1823 22.856C42.9263 22.584 42.6863 22.072 42.4623 21.32L42.4383 21.224C41.8303 21.976 41.2783 22.48 40.7823 22.736C40.3023 22.992 39.7423 23.12 39.1023 23.12C38.1263 23.12 37.3183 22.76 36.6783 22.04C36.0543 21.304 35.7423 20.352 35.7423 19.184C35.7423 17.904 36.0143 16.72 36.5583 15.632C37.1023 14.544 37.8463 13.656 38.7903 12.968C39.7343 12.264 40.7903 11.84 41.9583 11.696C42.2623 8.672 42.8383 6.04 43.6863 3.8C44.5503 1.56 45.6943 0.439999 47.1183 0.439999C47.8063 0.439999 48.3743 0.751999 48.8223 1.376C49.2863 2 49.5183 2.944 49.5183 4.208C49.5183 5.968 49.0863 8.024 48.2223 10.376C47.3583 12.728 46.2143 15.152 44.7903 17.648ZM46.8543 2.792C46.3903 2.792 45.9503 3.976 45.5343 6.344C45.1343 8.712 44.8623 11.288 44.7183 14.072C46.4943 10.232 47.3823 7.112 47.3823 4.712C47.3823 4.104 47.3263 3.632 47.2143 3.296C47.1183 2.96 46.9983 2.792 46.8543 2.792ZM39.9423 20.696C40.2623 20.696 40.5663 20.576 40.8543 20.336C41.1583 20.096 41.5423 19.632 42.0063 18.944C41.8463 17.776 41.7663 16.568 41.7663 15.32C41.7663 14.824 41.7743 14.44 41.7903 14.168C40.9103 14.424 40.1823 15.008 39.6063 15.92C39.0303 16.832 38.7423 17.84 38.7423 18.944C38.7423 20.112 39.1423 20.696 39.9423 20.696ZM83.5762 8.696C83.5762 10.056 83.2242 11.304 82.5202 12.44C81.8162 13.576 80.7922 14.504 79.4482 15.224C78.1042 15.944 76.5042 16.368 74.6482 16.496L73.6162 22.28C73.2162 24.504 72.1282 25.616 70.3522 25.616C69.3762 25.616 68.4722 25.328 67.6402 24.752C66.8242 24.176 66.1682 23.296 65.6722 22.112C65.1762 20.928 64.9282 19.472 64.9282 17.744C64.9282 14.496 65.4482 11.744 66.4882 9.488C67.5442 7.216 68.9522 5.52 70.7122 4.4C72.4882 3.264 74.4402 2.696 76.5682 2.696C78.0722 2.696 79.3442 2.96 80.3842 3.488C81.4402 4.016 82.2322 4.736 82.7602 5.648C83.3042 6.544 83.5762 7.56 83.5762 8.696ZM75.0802 14.024C78.3602 13.608 80.0002 11.904 80.0002 8.912C80.0002 7.856 79.6482 7 78.9442 6.344C78.2562 5.672 77.1842 5.336 75.7282 5.336C74.0802 5.336 72.6402 5.856 71.4082 6.896C70.1922 7.936 69.2482 9.384 68.5762 11.24C67.9202 13.08 67.5922 15.184 67.5922 17.552C67.5922 18.544 67.6882 19.424 67.8802 20.192C68.0882 20.96 68.3442 21.56 68.6482 21.992C68.9682 22.408 69.2722 22.616 69.5602 22.616C69.9602 22.616 70.2642 22.064 70.4722 20.96L71.2642 16.424C70.6402 16.328 70.3682 16.288 70.4482 16.304C69.9682 16.224 69.6562 16.08 69.5122 15.872C69.3682 15.648 69.2962 15.368 69.2962 15.032C69.2962 14.68 69.3922 14.4 69.5842 14.192C69.7922 13.984 70.0722 13.88 70.4242 13.88C70.5842 13.88 70.7042 13.888 70.7842 13.904C71.1682 13.968 71.4642 14.008 71.6722 14.024C71.8802 12.776 72.1762 11.104 72.5602 9.008C72.6562 8.464 72.8722 8.08 73.2082 7.856C73.5602 7.616 73.9682 7.496 74.4322 7.496C74.9602 7.496 75.3362 7.6 75.5602 7.808C75.8002 8 75.9202 8.312 75.9202 8.744C75.9202 9 75.9042 9.208 75.8722 9.368L75.0802 14.024ZM93.3847 17.648C93.5927 17.648 93.7527 17.744 93.8647 17.936C93.9927 18.128 94.0567 18.392 94.0567 18.728C94.0567 19.368 93.9047 19.864 93.6007 20.216C92.9127 21.064 92.1607 21.76 91.3447 22.304C90.5447 22.848 89.6327 23.12 88.6087 23.12C87.2007 23.12 86.1527 22.48 85.4647 21.2C84.7927 19.92 84.4567 18.264 84.4567 16.232C84.4567 14.28 84.7047 12.056 85.2007 9.56C85.7127 7.064 86.4567 4.92 87.4327 3.128C88.4247 1.336 89.6007 0.439999 90.9607 0.439999C91.7287 0.439999 92.3287 0.799999 92.7607 1.52C93.2087 2.224 93.4327 3.24 93.4327 4.568C93.4327 6.472 92.9047 8.68 91.8487 11.192C90.7927 13.704 89.3607 16.192 87.5527 18.656C87.6647 19.312 87.8487 19.784 88.1047 20.072C88.3607 20.344 88.6967 20.48 89.1127 20.48C89.7687 20.48 90.3447 20.296 90.8407 19.928C91.3367 19.544 91.9687 18.896 92.7367 17.984C92.9287 17.76 93.1447 17.648 93.3847 17.648ZM90.4327 2.816C90.0647 2.816 89.6487 3.48 89.1847 4.808C88.7207 6.136 88.3127 7.784 87.9607 9.752C87.6087 11.72 87.4167 13.608 87.3847 15.416C88.5207 13.544 89.4247 11.672 90.0967 9.8C90.7687 7.912 91.1047 6.192 91.1047 4.64C91.1047 3.424 90.8807 2.816 90.4327 2.816ZM94.8345 23.12C93.8425 23.12 93.0505 22.76 92.4585 22.04C91.8665 21.32 91.5705 20.376 91.5705 19.208C91.5705 17.928 91.8665 16.72 92.4585 15.584C93.0505 14.432 93.8345 13.512 94.8105 12.824C95.8025 12.12 96.8505 11.768 97.9545 11.768C98.3065 11.768 98.5385 11.84 98.6505 11.984C98.7785 12.112 98.8825 12.352 98.9625 12.704C99.2985 12.64 99.6505 12.608 100.018 12.608C100.802 12.608 101.194 12.888 101.194 13.448C101.194 13.784 101.074 14.584 100.834 15.848C100.466 17.688 100.282 18.968 100.282 19.688C100.282 19.928 100.338 20.12 100.45 20.264C100.578 20.408 100.738 20.48 100.93 20.48C101.234 20.48 101.602 20.288 102.034 19.904C102.466 19.504 103.05 18.864 103.786 17.984C103.978 17.76 104.194 17.648 104.434 17.648C104.642 17.648 104.802 17.744 104.914 17.936C105.042 18.128 105.106 18.392 105.106 18.728C105.106 19.368 104.954 19.864 104.65 20.216C103.994 21.032 103.298 21.72 102.562 22.28C101.826 22.84 101.114 23.12 100.426 23.12C99.8985 23.12 99.4105 22.944 98.9625 22.592C98.5305 22.224 98.2025 21.728 97.9785 21.104C97.1465 22.448 96.0985 23.12 94.8345 23.12ZM95.6985 20.696C96.0505 20.696 96.3865 20.488 96.7065 20.072C97.0265 19.656 97.2585 19.104 97.4025 18.416L98.2905 14C97.6185 14.016 96.9945 14.272 96.4185 14.768C95.8585 15.248 95.4105 15.888 95.0745 16.688C94.7385 17.488 94.5705 18.336 94.5705 19.232C94.5705 19.728 94.6665 20.096 94.8585 20.336C95.0665 20.576 95.3465 20.696 95.6985 20.696ZM104.86 23.12C104.252 23.12 103.82 22.8 103.564 22.16C103.324 21.52 103.204 20.496 103.204 19.088C103.204 17.008 103.5 15.032 104.092 13.16C104.236 12.696 104.468 12.36 104.788 12.152C105.124 11.928 105.588 11.816 106.18 11.816C106.5 11.816 106.724 11.856 106.852 11.936C106.98 12.016 107.044 12.168 107.044 12.392C107.044 12.648 106.924 13.224 106.684 14.12C106.524 14.76 106.396 15.32 106.3 15.8C106.204 16.28 106.124 16.872 106.06 17.576C106.588 16.2 107.18 15.08 107.836 14.216C108.492 13.352 109.132 12.736 109.756 12.368C110.396 12 110.98 11.816 111.508 11.816C112.548 11.816 113.068 12.336 113.068 13.376C113.068 14 112.892 15.128 112.54 16.76C112.236 18.152 112.084 19.072 112.084 19.52C112.084 20.16 112.316 20.48 112.78 20.48C113.1 20.48 113.476 20.288 113.908 19.904C114.356 19.504 114.948 18.864 115.684 17.984C115.876 17.76 116.092 17.648 116.332 17.648C116.54 17.648 116.7 17.744 116.812 17.936C116.94 18.128 117.004 18.392 117.004 18.728C117.004 19.368 116.852 19.864 116.548 20.216C115.86 21.064 115.116 21.76 114.316 22.304C113.532 22.848 112.636 23.12 111.628 23.12C110.812 23.12 110.196 22.888 109.78 22.424C109.364 21.944 109.156 21.256 109.156 20.36C109.156 19.912 109.268 19.112 109.492 17.96C109.7 16.952 109.804 16.256 109.804 15.872C109.804 15.616 109.716 15.488 109.54 15.488C109.332 15.488 109.036 15.76 108.652 16.304C108.284 16.832 107.9 17.536 107.5 18.416C107.116 19.296 106.804 20.224 106.564 21.2C106.388 21.952 106.18 22.464 105.94 22.736C105.716 22.992 105.356 23.12 104.86 23.12ZM116.766 23.12C116.158 23.12 115.726 22.8 115.47 22.16C115.23 21.52 115.11 20.496 115.11 19.088C115.11 17.008 115.406 15.032 115.998 13.16C116.142 12.696 116.374 12.36 116.694 12.152C117.03 11.928 117.494 11.816 118.086 11.816C118.406 11.816 118.63 11.856 118.758 11.936C118.886 12.016 118.95 12.168 118.95 12.392C118.95 12.648 118.83 13.224 118.59 14.12C118.43 14.76 118.302 15.32 118.206 15.8C118.11 16.28 118.03 16.872 117.966 17.576C118.494 16.2 119.086 15.08 119.742 14.216C120.398 13.352 121.038 12.736 121.662 12.368C122.302 12 122.886 11.816 123.414 11.816C124.454 11.816 124.974 12.336 124.974 13.376C124.974 14 124.798 15.128 124.446 16.76C124.142 18.152 123.99 19.072 123.99 19.52C123.99 20.16 124.222 20.48 124.686 20.48C125.006 20.48 125.382 20.288 125.814 19.904C126.262 19.504 126.854 18.864 127.59 17.984C127.782 17.76 127.998 17.648 128.238 17.648C128.446 17.648 128.606 17.744 128.718 17.936C128.846 18.128 128.91 18.392 128.91 18.728C128.91 19.368 128.758 19.864 128.454 20.216C127.766 21.064 127.022 21.76 126.222 22.304C125.438 22.848 124.542 23.12 123.534 23.12C122.718 23.12 122.102 22.888 121.686 22.424C121.27 21.944 121.062 21.256 121.062 20.36C121.062 19.912 121.174 19.112 121.398 17.96C121.606 16.952 121.71 16.256 121.71 15.872C121.71 15.616 121.622 15.488 121.446 15.488C121.238 15.488 120.942 15.76 120.558 16.304C120.19 16.832 119.806 17.536 119.406 18.416C119.022 19.296 118.71 20.224 118.47 21.2C118.294 21.952 118.086 22.464 117.846 22.736C117.622 22.992 117.262 23.12 116.766 23.12ZM137.672 17.648C137.88 17.648 138.04 17.744 138.152 17.936C138.28 18.128 138.344 18.392 138.344 18.728C138.344 19.368 138.192 19.864 137.888 20.216C137.296 20.936 136.456 21.6 135.368 22.208C134.296 22.816 133.144 23.12 131.912 23.12C130.232 23.12 128.928 22.664 128 21.752C127.072 20.84 126.608 19.592 126.608 18.008C126.608 16.904 126.84 15.88 127.304 14.936C127.768 13.976 128.408 13.216 129.224 12.656C130.056 12.096 130.992 11.816 132.032 11.816C132.96 11.816 133.704 12.096 134.264 12.656C134.824 13.2 135.104 13.944 135.104 14.888C135.104 15.992 134.704 16.944 133.904 17.744C133.12 18.528 131.784 19.152 129.896 19.616C130.296 20.352 131.056 20.72 132.176 20.72C132.896 20.72 133.712 20.472 134.624 19.976C135.552 19.464 136.352 18.8 137.024 17.984C137.216 17.76 137.432 17.648 137.672 17.648ZM131.624 14.168C131.032 14.168 130.528 14.512 130.112 15.2C129.712 15.888 129.512 16.72 129.512 17.696V17.744C130.456 17.52 131.2 17.184 131.744 16.736C132.288 16.288 132.56 15.768 132.56 15.176C132.56 14.872 132.472 14.632 132.296 14.456C132.136 14.264 131.912 14.168 131.624 14.168ZM146.086 15.104C146.438 15.104 146.734 15.232 146.974 15.488C147.23 15.728 147.358 16.032 147.358 16.4C147.358 16.608 147.31 16.832 147.214 17.072C146.958 17.664 146.598 18.16 146.134 18.56C145.67 18.96 145.158 19.16 144.598 19.16C144.15 19.16 143.766 19 143.446 18.68C143.142 18.36 142.99 17.928 142.99 17.384C142.99 17.08 143.006 16.752 143.038 16.4C143.07 16.144 143.086 15.968 143.086 15.872C143.086 15.744 143.054 15.648 142.99 15.584C142.942 15.52 142.878 15.488 142.798 15.488C142.574 15.488 142.27 15.76 141.886 16.304C141.502 16.832 141.118 17.536 140.734 18.416C140.35 19.296 140.038 20.224 139.798 21.2C139.622 21.968 139.422 22.48 139.198 22.736C138.974 22.992 138.606 23.12 138.094 23.12C137.486 23.12 137.054 22.8 136.798 22.16C136.558 21.52 136.438 20.496 136.438 19.088C136.438 17.008 136.734 15.032 137.326 13.16C137.47 12.696 137.702 12.36 138.022 12.152C138.358 11.928 138.822 11.816 139.414 11.816C139.734 11.816 139.958 11.856 140.086 11.936C140.214 12.016 140.278 12.168 140.278 12.392C140.278 12.648 140.158 13.224 139.918 14.12C139.758 14.76 139.63 15.32 139.534 15.8C139.438 16.28 139.358 16.872 139.294 17.576C139.822 16.2 140.414 15.08 141.07 14.216C141.726 13.352 142.366 12.736 142.99 12.368C143.614 12 144.182 11.816 144.694 11.816C145.158 11.816 145.51 11.952 145.75 12.224C146.006 12.48 146.134 12.864 146.134 13.376C146.134 13.68 146.046 14.256 145.87 15.104H146.086Z" fill="#FAFAFA"/>
<path d="M66.2503 17.648C66.4583 17.648 66.6183 17.744 66.7303 17.936C66.8583 18.128 66.9223 18.392 66.9223 18.728C66.9223 19.352 66.7703 19.848 66.4663 20.216C65.6823 21.144 64.9063 21.864 64.1383 22.376C63.3703 22.872 62.5143 23.12 61.5703 23.12C60.1463 23.12 59.0663 22.696 58.3303 21.848C57.6103 21 57.0263 19.76 56.5783 18.128L55.7623 15.152L50.0983 22.16C49.7783 22.56 49.4503 22.824 49.1143 22.952C48.7783 23.064 48.3863 23.12 47.9383 23.12C47.4903 23.12 47.1143 23.04 46.8103 22.88C46.5223 22.704 46.3783 22.464 46.3783 22.16C46.3783 21.76 46.6103 21.304 47.0743 20.792L54.8503 11.936L54.0823 9.128C53.7143 7.816 53.3063 6.896 52.8583 6.368C52.4103 5.84 51.8983 5.576 51.3223 5.576C50.4743 5.576 49.4823 6.192 48.3463 7.424C48.1543 7.632 47.9383 7.736 47.6983 7.736C47.4583 7.736 47.2503 7.648 47.0743 7.472C46.9143 7.28 46.8343 7.04 46.8343 6.752C46.8343 6.272 47.0663 5.752 47.5303 5.192C48.1863 4.424 48.8983 3.808 49.6663 3.344C50.4343 2.88 51.3463 2.648 52.4023 2.648C53.5383 2.648 54.4743 3.008 55.2103 3.728C55.9463 4.432 56.5303 5.576 56.9623 7.16L57.4423 8.84L61.6423 3.728C61.9623 3.344 62.2903 3.072 62.6263 2.912C62.9623 2.752 63.3703 2.672 63.8503 2.672C64.2823 2.672 64.6183 2.752 64.8583 2.912C65.1143 3.072 65.2423 3.296 65.2423 3.584C65.2423 3.968 65.0263 4.408 64.5943 4.904L58.3543 12.104L59.7223 17C59.9623 17.848 60.1783 18.496 60.3703 18.944C60.5623 19.392 60.7943 19.728 61.0663 19.952C61.3543 20.16 61.7303 20.264 62.1943 20.264C62.6903 20.264 63.2023 20.088 63.7303 19.736C64.2743 19.384 64.8983 18.8 65.6023 17.984C65.7943 17.76 66.0103 17.648 66.2503 17.648Z" fill="white"/>
</svg>
